<svg width="17" height="16" viewBox="0 0 17 16" fill="none" xmlns="http://www.w3.org/2000/svg">
<path d="M1.49951 7.99803C1.49951 4.13289 4.63283 0.999573 8.49797 0.999573C12.3631 0.999573 15.4964 4.13289 15.4964 7.99803C15.4964 11.8632 12.3631 14.9965 8.49797 14.9965C4.63283 14.9965 1.49951 11.8632 1.49951 7.99803ZM8.49797 1.99957L8.44859 1.99977C8.53989 2.17864 8.63987 2.39461 8.72996 2.63397C8.97304 3.27978 9.19358 4.22554 8.80098 5.06155C8.43927 5.83178 7.81604 6.03126 7.35055 6.15153L7.28328 6.16887C6.83064 6.28545 6.64303 6.33377 6.50793 6.53887C6.38155 6.73074 6.40435 6.97155 6.54781 7.43904C6.55802 7.47231 6.56903 7.50739 6.58048 7.54389C6.63745 7.72542 6.70544 7.94207 6.7409 8.14586C6.78497 8.39918 6.79674 8.7177 6.63674 9.02472C6.47649 9.33223 6.26469 9.54091 6.01495 9.67697C5.77988 9.80503 5.53589 9.85388 5.35085 9.8867L5.28225 9.89879C4.92404 9.96175 4.74235 9.99368 4.56762 10.1809C4.43079 10.3274 4.3456 10.5822 4.29619 10.9528C4.27603 11.104 4.2639 11.2539 4.25143 11.4081L4.24474 11.4902C4.23069 11.6607 4.2134 11.8547 4.17562 12.0207L4.15053 12.131C5.24332 13.2801 6.78699 13.9965 8.49797 13.9965C9.61317 13.9965 10.6573 13.6922 11.5518 13.162C11.4724 13.0839 11.3822 12.9875 11.2936 12.8759C11.0566 12.5775 10.7499 12.0683 10.8563 11.4696C10.9073 11.1825 11.0614 10.941 11.2122 10.754C11.3658 10.5637 11.5515 10.3874 11.7149 10.237C11.7535 10.2015 11.7906 10.1676 11.8262 10.1351C11.9515 10.0207 12.0588 9.92274 12.1504 9.82667C12.207 9.76746 12.2473 9.71931 12.2746 9.68048C12.2977 9.6476 12.3049 9.63064 12.306 9.62804C12.3059 9.62804 12.3061 9.62781 12.306 9.62804C12.3567 9.46021 12.2951 9.33714 12.2221 9.28072C12.1673 9.23833 12.0269 9.17535 11.7764 9.33403C11.679 9.3957 11.5923 9.45053 11.5225 9.49107C11.4702 9.52149 11.3641 9.5831 11.2482 9.60845C11.185 9.62225 11.0463 9.64241 10.8951 9.57134C10.7242 9.49104 10.6458 9.34773 10.6142 9.24925C10.5865 9.16273 10.5854 9.0856 10.5857 9.04947C10.586 9.00716 10.5897 8.96681 10.5928 8.93747C10.5954 8.91316 10.5985 8.88727 10.6019 8.85968C10.6275 8.64911 10.6652 8.33933 10.5449 7.87749C10.4481 7.50612 10.3072 7.22363 10.1634 6.93517C10.0971 6.80222 10.0301 6.66799 9.96657 6.52321C9.87901 6.32372 9.78273 6.06391 9.79966 5.78733C9.81923 5.46771 9.98127 5.20704 10.2425 5.01112C10.5595 4.77331 10.9583 4.22902 11.3033 3.67782C11.4683 3.41418 11.6096 3.16788 11.7097 2.98732C11.7176 2.97299 11.7253 2.95909 11.7327 2.94563C10.7994 2.34683 9.68923 1.99957 8.49797 1.99957ZM12.5347 3.56103C12.4334 3.74116 12.3018 3.96739 12.151 4.20835C11.8123 4.74938 11.3271 5.44764 10.8425 5.8111C10.8155 5.83134 10.8028 5.84535 10.7977 5.8518C10.7972 5.87858 10.8082 5.9526 10.8823 6.12132C10.9146 6.19498 10.96 6.28628 11.0125 6.39185C11.1687 6.70603 11.3879 7.14667 11.5126 7.62543C11.5792 7.88135 11.6106 8.11001 11.6224 8.30692C12.0584 8.16241 12.4965 8.22882 12.8338 8.48964C13.252 8.81304 13.4274 9.37421 13.2631 9.91777C13.1883 10.1653 13.0134 10.3709 12.8738 10.5171C12.7559 10.6407 12.6146 10.7696 12.4856 10.8872C12.4535 10.9165 12.4221 10.9451 12.3921 10.9728C12.2306 11.1215 12.0934 11.2544 11.9906 11.3819C11.885 11.5127 11.8491 11.5977 11.8408 11.6445C11.8115 11.8096 11.8923 12.0219 12.0766 12.254C12.1607 12.3598 12.2501 12.4489 12.3194 12.5118C12.3446 12.5347 12.3665 12.5535 12.3837 12.5679C13.6764 11.4677 14.4964 9.8286 14.4964 7.99803C14.4964 6.23977 13.7399 4.65819 12.5347 3.56103ZM2.49951 7.99803C2.49951 9.07979 2.78586 10.0947 3.2869 10.971C3.29228 10.9213 3.29825 10.871 3.30496 10.8206C3.35891 10.416 3.47344 9.88754 3.83661 9.49849C4.25132 9.05422 4.75969 8.9708 5.08477 8.91745C5.11717 8.91213 5.14775 8.90711 5.17624 8.90206C5.35049 8.87116 5.45482 8.84335 5.53654 8.79883C5.60359 8.7623 5.67703 8.70248 5.74994 8.56258C5.76427 8.53507 5.78274 8.47273 5.75569 8.31726C5.7326 8.18452 5.68927 8.04561 5.63333 7.86628C5.62015 7.82405 5.60628 7.77958 5.59181 7.73241C5.46142 7.30752 5.2584 6.61795 5.67282 5.98879C6.03298 5.442 6.61148 5.30212 6.98626 5.21151C7.02687 5.20168 7.0651 5.19244 7.10039 5.18332C7.49758 5.0807 7.73295 4.98328 7.89582 4.63648C8.10809 4.18445 8.01541 3.57432 7.79407 2.98624C7.6888 2.70659 7.56537 2.461 7.46766 2.28481C7.42713 2.21175 7.39151 2.15146 7.36413 2.10658C4.5934 2.63664 2.49951 5.07281 2.49951 7.99803Z" fill="#252025"/>
</svg>
