<svg width="17" height="16" viewBox="0 0 17 16" fill="none" xmlns="http://www.w3.org/2000/svg">
<path d="M9.86808 2.44717C9.03695 1.90371 7.96296 1.9037 7.13181 2.44713L1.72613 5.98155C1.58607 6.07313 1.50111 6.2287 1.49977 6.39604C1.49962 6.41454 1.5005 6.43291 1.50236 6.45108C1.5008 6.46717 1.5 6.48349 1.5 6.5L1.5 10.5C1.5 10.7761 1.72386 11 2 11C2.27614 11 2.5 10.7761 2.5 10.5L2.5 7.34243L3.5 8.01933V11.7C3.5 11.8187 3.54279 11.9341 3.61963 12.0245L3.62039 12.0254L3.62237 12.0277L3.62823 12.0345L3.64752 12.0563C3.66372 12.0743 3.68661 12.0994 3.71603 12.1303C3.77484 12.1922 3.85997 12.2781 3.97026 12.3799C4.19051 12.5832 4.51312 12.8519 4.92899 13.1202C5.75964 13.6561 6.97783 14.2 8.5001 14.2C10.0224 14.2 11.2405 13.656 12.0711 13.1202C12.487 12.8519 12.8096 12.5832 13.0298 12.3799C13.1401 12.2781 13.2252 12.1922 13.284 12.1303C13.3134 12.0993 13.3363 12.0743 13.3525 12.0563L13.3718 12.0345L13.3777 12.0277L13.3796 12.0254L13.381 12.0238C13.4578 11.9334 13.5 11.8187 13.5 11.7V8.01907L15.28 6.81409C15.4186 6.72028 15.5014 6.60539 15.4997 6.39604C15.4984 6.22871 15.4134 6.07314 15.2734 5.98156L9.86808 2.44717ZM12.5 8.69601V11.5022C12.4601 11.5424 12.4105 11.5906 12.3515 11.6451C12.1655 11.8168 11.8881 12.0482 11.529 12.2799C10.8096 12.744 9.77783 13.2 8.5001 13.2C7.22236 13.2 6.1905 12.744 5.47111 12.2799C5.11196 12.0482 4.83454 11.8168 4.64852 11.6451C4.58951 11.5906 4.5399 11.5424 4.5 11.5022V8.69623L7.09853 10.4552C7.94497 11.0281 9.05494 11.0281 9.90136 10.4551L12.5 8.69601ZM4 11.7L3.61963 12.0245C3.61963 12.0245 3.61904 12.0238 4 11.7ZM7.67905 3.2841C8.17774 2.95804 8.82214 2.95805 9.32082 3.28413L14.0972 6.4L9.34078 9.62704C8.83293 9.97082 8.16695 9.97083 7.65909 9.62706L2.90239 6.40725L7.67905 3.2841Z" fill="#252025"/>
</svg>
