<svg width="17" height="16" viewBox="0 0 17 16" fill="none" xmlns="http://www.w3.org/2000/svg">
<path d="M9.5 7C9.5 8.10457 8.60457 9 7.5 9C6.39543 9 5.5 8.10457 5.5 7C5.5 5.89543 6.39543 5 7.5 5C8.60457 5 9.5 5.89543 9.5 7ZM8.5 7C8.5 6.44772 8.05228 6 7.5 6C6.94772 6 6.5 6.44772 6.5 7C6.5 7.55228 6.94772 8 7.5 8C8.05228 8 8.5 7.55228 8.5 7ZM1.5 4.25C1.5 3.55964 2.05964 3 2.75 3H12.25C12.9404 3 13.5 3.55964 13.5 4.25V9.75C13.5 10.4404 12.9404 11 12.25 11H2.75C2.05964 11 1.5 10.4404 1.5 9.75V4.25ZM2.75 4C2.61193 4 2.5 4.11193 2.5 4.25V5H3C3.27614 5 3.5 4.77614 3.5 4.5V4H2.75ZM2.5 9.75C2.5 9.88807 2.61193 10 2.75 10H3.5V9.5C3.5 9.22386 3.27614 9 3 9H2.5V9.75ZM4.5 9.5V10H10.5V9.5C10.5 8.67157 11.1716 8 12 8H12.5V6H12C11.1716 6 10.5 5.32843 10.5 4.5V4H4.5V4.5C4.5 5.32843 3.82843 6 3 6H2.5V8H3C3.82843 8 4.5 8.67157 4.5 9.5ZM11.5 10H12.25C12.3881 10 12.5 9.88807 12.5 9.75V9H12C11.7239 9 11.5 9.22386 11.5 9.5V10ZM12.5 5V4.25C12.5 4.11193 12.3881 4 12.25 4H11.5V4.5C11.5 4.77614 11.7239 5 12 5H12.5ZM5 13C4.3334 13 3.76836 12.5652 3.57304 11.9637C3.71179 11.9876 3.85444 12 4 12H12.25C13.4926 12 14.5 10.9926 14.5 9.75V5.08535C15.0826 5.29127 15.5 5.84689 15.5 6.5V9.75C15.5 11.5449 14.0449 13 12.25 13H5Z" fill="#252025"/>
</svg>
