<svg width="17" height="16" viewBox="0 0 17 16" fill="none" xmlns="http://www.w3.org/2000/svg">
<path d="M12.5 5.20951V10.2675C12.2058 10.0974 11.8643 9.99998 11.5 9.99998C10.3954 9.99998 9.5 10.8954 9.5 12C9.5 13.1045 10.3954 14 11.5 14C12.6046 14 13.5 13.1045 13.5 12V1.92568C13.5 1.37245 12.9519 0.986213 12.4309 1.17228L6.03093 3.458C5.71254 3.57171 5.5 3.8733 5.5 4.21139V11.2675C5.20583 11.0974 4.86429 11 4.5 11C3.39543 11 2.5 11.8954 2.5 13C2.5 14.1045 3.39543 15 4.5 15C5.60457 15 6.5 14.1045 6.5 13V7.35237L12.5 5.20951ZM12.5 4.14765L6.5 6.2905V4.35233L12.5 2.20948V4.14765ZM11.5 11C12.0523 11 12.5 11.4477 12.5 12C12.5 12.5523 12.0523 13 11.5 13C10.9477 13 10.5 12.5523 10.5 12C10.5 11.4477 10.9477 11 11.5 11ZM4.5 12C5.05228 12 5.5 12.4477 5.5 13C5.5 13.5523 5.05228 14 4.5 14C3.94772 14 3.5 13.5523 3.5 13C3.5 12.4477 3.94772 12 4.5 12Z" fill="#252025"/>
</svg>
