<svg width="17" height="16" viewBox="0 0 17 16" fill="none" xmlns="http://www.w3.org/2000/svg">
<path d="M4 5C3.72386 5 3.5 5.22386 3.5 5.5C3.5 5.77614 3.72386 6 4 6H11C11.2761 6 11.5 5.77614 11.5 5.5C11.5 5.22386 11.2761 5 11 5H4ZM4 7C3.72386 7 3.5 7.22386 3.5 7.5V9.5C3.5 9.77614 3.72386 10 4 10H6C6.27614 10 6.5 9.77614 6.5 9.5V7.5C6.5 7.22386 6.27614 7 6 7H4ZM4.5 9V8H5.5V9H4.5ZM8 7C7.72386 7 7.5 7.22386 7.5 7.5C7.5 7.77614 7.72386 8 8 8H11C11.2761 8 11.5 7.77614 11.5 7.5C11.5 7.22386 11.2761 7 11 7H8ZM8 9C7.72386 9 7.5 9.22386 7.5 9.5C7.5 9.77614 7.72386 10 8 10H11C11.2761 10 11.5 9.77614 11.5 9.5C11.5 9.22386 11.2761 9 11 9H8ZM1.5 4C1.5 2.89543 2.39543 2 3.5 2H11.5C12.6046 2 13.5 2.89543 13.5 4C14.6046 4 15.5 4.89543 15.5 6V10.5C15.5 11.8807 14.3807 13 13 13H4C2.61929 13 1.5 11.8807 1.5 10.5V4ZM13 10.5C12.7239 10.5 12.5 10.2761 12.5 10V4C12.5 3.44772 12.0523 3 11.5 3H3.5C2.94772 3 2.5 3.44772 2.5 4V10.5C2.5 11.3284 3.17157 12 4 12H13C13.8284 12 14.5 11.3284 14.5 10.5V6C14.5 5.44772 14.0523 5 13.5 5V10C13.5 10.2761 13.2761 10.5 13 10.5Z" fill="#252025"/>
</svg>
