<svg width="17" height="16" viewBox="0 0 17 16" fill="none" xmlns="http://www.w3.org/2000/svg">
<path d="M6.50195 4.00002C6.50195 2.89655 7.39649 2.00201 8.49995 2.00201C9.60342 2.00201 10.498 2.89655 10.498 4.00002C10.498 5.10348 9.60342 5.99802 8.49995 5.99802C7.39649 5.99802 6.50195 5.10348 6.50195 4.00002ZM8.49995 3.00201C7.94877 3.00201 7.50195 3.44883 7.50195 4.00002C7.50195 4.5512 7.94877 4.99802 8.49995 4.99802C9.05114 4.99802 9.49796 4.5512 9.49796 4.00002C9.49796 3.44883 9.05114 3.00201 8.49995 3.00201ZM11.5 4.5C11.5 3.67157 12.1716 3 13 3C13.8284 3 14.5 3.67157 14.5 4.5C14.5 5.32843 13.8284 6 13 6C12.1716 6 11.5 5.32843 11.5 4.5ZM13 4C12.7239 4 12.5 4.22386 12.5 4.5C12.5 4.77614 12.7239 5 13 5C13.2761 5 13.5 4.77614 13.5 4.5C13.5 4.22386 13.2761 4 13 4ZM4 3C3.17157 3 2.5 3.67157 2.5 4.5C2.5 5.32843 3.17157 6 4 6C4.82843 6 5.5 5.32843 5.5 4.5C5.5 3.67157 4.82843 3 4 3ZM3.5 4.5C3.5 4.22386 3.72386 4 4 4C4.27614 4 4.5 4.22386 4.5 4.5C4.5 4.77614 4.27614 5 4 5C3.72386 5 3.5 4.77614 3.5 4.5ZM4.76756 6.99969C4.59739 7.29387 4.5 7.63541 4.5 7.99969L2.5 7.99969V10.5C2.5 11.3285 3.17157 12 4 12C4.21194 12 4.41361 11.9561 4.59639 11.8768C4.6705 12.2082 4.78572 12.524 4.93643 12.8187C4.64721 12.9356 4.33112 13 4 13C2.61929 13 1.5 11.8807 1.5 10.5V7.99969C1.5 7.44741 1.94772 6.99969 2.5 6.99969H4.76756ZM12.0636 12.8187C12.3528 12.9356 12.6689 13 13 13C14.3807 13 15.5 11.8807 15.5 10.5V7.99969C15.5 7.44741 15.0523 6.99969 14.5 6.99969H12.2324C12.4026 7.29387 12.5 7.63541 12.5 7.9997L14.5 7.99969V10.5C14.5 11.3285 13.8284 12 13 12C12.7881 12 12.5864 11.9561 12.4036 11.8768C12.3295 12.2082 12.2143 12.524 12.0636 12.8187ZM6.5 6.99969C5.94772 6.99969 5.5 7.44741 5.5 7.99969V11C5.5 12.6569 6.84315 14 8.5 14C10.1569 14 11.5 12.6569 11.5 11V7.99969C11.5 7.44741 11.0523 6.99969 10.5 6.99969H6.5ZM6.5 7.99969L10.5 7.99969V11C10.5 12.1046 9.60457 13 8.5 13C7.39543 13 6.5 12.1046 6.5 11V7.99969Z" fill="#252025"/>
</svg>
