<svg width="17" height="16" viewBox="0 0 17 16" fill="none" xmlns="http://www.w3.org/2000/svg">
<path d="M4.93732 4.34716L4.92673 4.37226C5.23213 4.46146 5.55226 4.5654 5.88028 4.68661C6.03457 4.33584 6.23582 4.00073 6.48402 3.69084L12.8092 10.016C12.5055 10.2592 12.1776 10.4573 11.8344 10.6104C11.9563 10.9381 12.0607 11.2582 12.1501 11.5638L12.1825 11.55C12.786 11.2888 13.3335 10.9226 13.8019 10.4744C13.8312 10.4463 13.8603 10.4178 13.8892 10.389C13.9129 10.3652 13.9364 10.3413 13.9597 10.3172C14.8526 9.39122 15.4237 8.15278 15.4929 6.78199C15.4976 6.68859 15.5 6.59457 15.5 6.5C15.5 6.39776 15.4972 6.29618 15.4917 6.19532C15.4762 5.91458 15.4394 5.63481 15.3811 5.35864C14.9332 3.23726 13.263 1.56643 11.1416 1.11863C10.8769 1.06275 10.6086 1.02684 10.3396 1.01031C10.2273 1.00347 10.114 1 10 1C9.89265 1 9.78601 1.00308 9.68017 1.00915C9.10008 1.04274 8.5243 1.16778 7.97627 1.38427C6.6098 1.92529 5.51177 2.99796 4.93732 4.34716ZM14.2477 5.01085C13.615 5.40988 12.8074 5.41995 12.166 5.04107L13.5162 3.69084C13.8399 4.09502 14.0837 4.54208 14.2477 5.01085ZM11.4436 5.7634C12.3388 6.40134 13.5056 6.4888 14.4752 6.02577C14.5961 7.17389 14.2765 8.35962 13.5162 9.30885L10.7072 6.49981L11.4436 5.7634ZM10.7365 5.05629L10.0001 5.79271L7.19114 2.98374C8.14035 2.22352 9.32606 1.90386 10.4742 2.02478C10.0112 2.99438 10.0986 4.16117 10.7365 5.05629ZM11.4589 4.33396C11.08 3.69248 11.0901 2.88491 11.4891 2.25227C11.9578 2.41622 12.4049 2.66004 12.8091 2.98374L11.4589 4.33396ZM5.39642 8.89693C5.59168 8.70167 5.90826 8.70167 6.10352 8.89693L7.60352 10.3969C7.79879 10.5922 7.79879 10.9088 7.60352 11.104C7.40826 11.2993 7.09168 11.2993 6.89642 11.104L5.39642 9.60404C5.20115 9.40878 5.20115 9.0922 5.39642 8.89693ZM1.56775 7.02086C1.30427 5.82051 2.31501 4.79915 3.51814 5.05059C5.01385 5.36316 7.28722 6.07064 8.88052 7.66394C10.477 9.26046 11.1752 11.527 11.48 13.0139C11.7249 14.2085 10.7144 15.2113 9.52172 14.9573C8.04344 14.6425 5.79589 13.9323 4.20404 12.3404C2.61688 10.7533 1.89354 8.50509 1.56775 7.02086ZM3.31357 6.02944C2.82063 5.92642 2.43648 6.31438 2.54449 6.80646C2.85751 8.23251 3.52897 10.2512 4.91115 11.6333C6.29608 13.0183 8.31155 13.6772 9.72998 13.9792C10.2176 14.0831 10.6005 13.703 10.5004 13.2147C10.2077 11.787 9.55958 9.75722 8.17341 8.37105C6.78961 6.98725 4.75195 6.33004 3.31357 6.02944Z" fill="#252025"/>
</svg>
