<svg width="17" height="16" viewBox="0 0 17 16" fill="none" xmlns="http://www.w3.org/2000/svg">
<path d="M6.5 2H13.5C14.0523 2 14.5 2.44772 14.5 3V9C14.5 9.55229 14.0523 10 13.5 10H8.5V11H10.5V12H8.5V13H12C12.2761 13 12.5 12.7761 12.5 12.5C12.5 12.2239 12.2761 12 12 12H11.5V11H13.5C14.6046 11 15.5 10.1046 15.5 9V3C15.5 1.89543 14.6046 1 13.5 1H6.5C5.39543 1 4.5 1.89543 4.5 3V5H5.5V3C5.5 2.44772 5.94772 2 6.5 2ZM4 12C3.72386 12 3.5 12.2239 3.5 12.5C3.5 12.7761 3.72386 13 4 13H5C5.27614 13 5.5 12.7761 5.5 12.5C5.5 12.2239 5.27614 12 5 12H4ZM3 6C2.17157 6 1.5 6.67157 1.5 7.5V13.5C1.5 14.3284 2.17157 15 3 15H6C6.82843 15 7.5 14.3284 7.5 13.5V7.5C7.5 6.67157 6.82843 6 6 6H3ZM3 7H6C6.27614 7 6.5 7.22386 6.5 7.5V13.5C6.5 13.7761 6.27614 14 6 14H3C2.72386 14 2.5 13.7761 2.5 13.5V7.5C2.5 7.22386 2.72386 7 3 7Z" fill="#252025"/>
</svg>
