<svg width="16" height="16" viewBox="0 0 16 16" fill="none" xmlns="http://www.w3.org/2000/svg">
<path d="M8.03494 1.92369C8.24411 1.40285 8.83006 0.843366 9.5806 1.05196C10.1709 1.21603 10.5544 1.57295 10.7735 2.04843C10.9778 2.49163 11.028 3.0133 11.0375 3.51044C11.0478 4.0452 10.9361 4.68677 10.8047 5.24788C10.7434 5.50942 10.6759 5.76153 10.6099 5.98817H11.9949C13.3298 5.98817 14.29 7.27086 13.9139 8.55163L12.5497 13.1977C12.1555 14.5401 10.7365 15.2977 9.40179 14.8785L4.04591 13.1962C3.45891 13.0118 2.98944 12.5675 2.77304 11.9915L2.25304 10.6076C1.91142 9.69833 2.27244 8.6751 3.109 8.18156L4.98089 7.07721C4.98462 7.07459 4.99002 7.07073 4.99704 7.06557C5.01761 7.05041 5.05204 7.02398 5.09835 6.98471C5.19093 6.90622 5.33128 6.77616 5.5035 6.58191C5.84755 6.19384 6.32141 5.54662 6.79565 4.5374C7.00052 4.10142 7.17287 3.7587 7.32941 3.44744C7.58243 2.94432 7.79411 2.5234 8.03494 1.92369ZM5.51946 7.92006C5.51378 7.92371 5.50805 7.92726 5.50224 7.93069L3.61713 9.04284C3.19885 9.28961 3.01834 9.80123 3.18915 10.2558L3.70914 11.6398C3.81735 11.9278 4.05208 12.1499 4.34558 12.2421L9.70146 13.9244C10.5023 14.176 11.3537 13.7214 11.5902 12.916L12.9544 8.2699C13.1424 7.62952 12.6623 6.98817 11.9949 6.98817H9.92587C9.76349 6.98817 9.61122 6.90931 9.51751 6.77668C9.42381 6.64406 9.40035 6.47419 9.4546 6.32113C9.55458 6.03905 9.70672 5.55035 9.83103 5.01977C9.95711 4.48162 10.0456 3.93746 10.0377 3.52967C10.0287 3.06136 9.97907 2.71372 9.86536 2.46703C9.76654 2.25263 9.61384 2.09911 9.31282 2.01544C9.26971 2.00346 9.21948 2.00696 9.15353 2.05026C9.08149 2.09755 9.00781 2.18454 8.96291 2.29635C8.70922 2.92808 8.46651 3.41194 8.19787 3.94748C8.04311 4.25601 7.87974 4.58169 7.7007 4.96269C7.18681 6.05631 6.66067 6.78409 6.25176 7.24531C6.04749 7.47571 5.87312 7.63887 5.74509 7.74743C5.68109 7.80169 5.62875 7.84225 5.59013 7.8707C5.57082 7.88493 5.55495 7.89612 5.54277 7.90448L5.5273 7.91492L5.52171 7.9186L5.51946 7.92006ZM4.97612 7.08055L4.97492 7.08133L4.97612 7.08055Z" fill="#329F7F"/>
</svg>
