<svg width="16" height="16" viewBox="0 0 16 16" fill="none" xmlns="http://www.w3.org/2000/svg">
<path d="M10.5771 9.99976C10.5938 10.1332 10.6113 10.285 10.6278 10.4503C10.7013 11.1895 10.7587 12.243 10.614 13.1276C10.5422 13.5668 10.4132 14.0143 10.1722 14.3638C9.91554 14.736 9.52549 14.9998 8.99961 14.9998C8.48302 14.9998 8.16852 14.63 7.97561 14.3086C7.78329 13.9882 7.61472 13.5532 7.44216 13.108L7.42903 13.0741C6.88232 11.664 6.13467 9.75732 4.12266 8.41598C3.81572 8.21136 3.52425 8.0641 3.26934 7.9584C2.57275 7.66954 1.94726 6.90129 2.11203 6.0219L2.33601 4.82651C2.47651 4.07662 3.03141 3.472 3.76651 3.2678L8.71658 1.89278C10.6928 1.34383 12.7154 2.60416 13.0934 4.62009L13.5469 7.03904C13.8354 8.57757 12.6551 9.99976 11.0898 9.99976H10.5771ZM12.1105 4.80437C11.8405 3.36442 10.3958 2.46419 8.98423 2.8563L4.03416 4.23132C3.6666 4.33342 3.38916 4.63573 3.3189 5.01067L3.09493 6.20606C3.0418 6.48959 3.25605 6.87032 3.65238 7.03467C3.96167 7.16292 4.31143 7.33998 4.67736 7.58393C6.96425 9.10852 7.80593 11.2797 8.35333 12.6918L8.36142 12.7127C8.55096 13.2016 8.69012 13.5559 8.83304 13.794C8.9022 13.9092 8.95384 13.9646 8.98464 13.9889C8.99274 13.9952 8.99807 13.9984 9.00069 13.9998C9.14256 13.9995 9.24588 13.9456 9.34895 13.7961C9.46794 13.6236 9.56524 13.3447 9.62714 12.9662C9.7499 12.2157 9.70429 11.2692 9.63268 10.5493C9.60429 10.2639 9.57259 10.0212 9.54807 9.85041C9.53582 9.76509 9.5254 9.69793 9.51812 9.65259L9.50974 9.60147L9.50764 9.58908L9.50717 9.58634C9.48173 9.44088 9.52181 9.29118 9.6168 9.17812C9.66829 9.11684 9.73303 9.06959 9.80505 9.03917C9.86592 9.01346 9.93197 8.99976 9.99961 8.99976H11.0898C12.029 8.99976 12.7372 8.14645 12.5641 7.22333L12.1105 4.80437Z" fill="#DF4C6F"/>
</svg>
